<?xml version="1.0" encoding="UTF-8"?>
<svg version="1.1" xmlns="http://www.w3.org/2000/svg" width="245" height="74">
<path d="M0 0 C3.79774016 2.97342446 5.70370653 5.5724042 6.6875 10.3125 C5.33446816 17.56967077 2.70620276 23.24530346 -3.4375 27.5625 C-7.23838829 29.96270316 -9.1972075 30.19953458 -14 31 C-14.66 24.73 -15.32 18.46 -16 12 C-14.02 11.01 -12.04 10.02 -10 9 C-10 7.68 -10 6.36 -10 5 C-15.55130005 3.22358398 -20.76365102 3.46116413 -26 6 C-25.80528889 7.94999129 -25.80528889 7.94999129 -25 10 C-23.68 10.66 -22.36 11.32 -21 12 C-21 18.27 -21 24.54 -21 31 C-27.86245322 29.62750936 -32.73974985 26.42976892 -37.5 21.3125 C-40.60847291 16.52027093 -40.71748367 11.54104859 -40 6 C-37.01110444 0.43447034 -33.02410601 -1.40761125 -27.09375 -3.3046875 C-17.75023274 -5.40461941 -8.44505612 -4.69169785 0 0 Z " fill="#E69265" transform="translate(235,28)"/>
<path d="M0 0 C5.89676742 0.93303282 9.43624967 6.87542193 12.9375 11.25 C13.37320313 10.87488281 13.80890625 10.49976563 14.2578125 10.11328125 C15.50185701 9.04426465 16.74947747 7.97940017 18 6.91796875 C19.20628053 5.87949741 20.39710476 4.822435 21.5625 3.73828125 C23.92741713 1.58891646 25.49133618 0.32098061 28.6875 -0.1875 C30.9375 0.25 30.9375 0.25 32.9375 2.25 C33.13717918 4.78441851 33.21736269 7.20713551 33.203125 9.7421875 C33.20599518 10.85571091 33.20599518 10.85571091 33.20892334 11.99172974 C33.2102853 13.56366311 33.20658805 15.13560772 33.19824219 16.70751953 C33.18757262 19.10865748 33.19812104 21.50904211 33.2109375 23.91015625 C33.20961531 25.43750165 33.2070517 26.96484658 33.203125 28.4921875 C33.20717346 29.20897675 33.21122192 29.92576599 33.21539307 30.66427612 C33.18088133 34.35366845 32.97275555 37.11425126 30.9375 40.25 C28.9575 40.25 26.9775 40.25 24.9375 40.25 C23.32123344 35.19752447 22.59583177 30.6485816 22.3125 25.3125 C22.27382813 24.62865234 22.23515625 23.94480469 22.1953125 23.24023438 C22.10227588 21.57720487 22.01886213 19.91364153 21.9375 18.25 C21.1846875 19.07242188 20.431875 19.89484375 19.65625 20.7421875 C16.9375 23.25 16.9375 23.25 13.4375 23.375 C9.40246102 22.07802318 7.79676093 20.29530873 4.9375 17.25 C4.91244385 17.9112085 4.8873877 18.57241699 4.86157227 19.25366211 C4.74596898 22.23182305 4.62308246 25.2096392 4.5 28.1875 C4.46068359 29.22841797 4.42136719 30.26933594 4.38085938 31.34179688 C4.33896484 32.33115234 4.29707031 33.32050781 4.25390625 34.33984375 C4.19891968 35.71450806 4.19891968 35.71450806 4.14282227 37.11694336 C3.9375 39.25 3.9375 39.25 2.9375 40.25 C-2.59191176 40.48529412 -2.59191176 40.48529412 -5.0625 39.25 C-5.11185824 34.01726669 -5.14819949 28.78466824 -5.17236328 23.55175781 C-5.18243431 21.77080933 -5.19609185 19.98987743 -5.21337891 18.20898438 C-5.23757913 15.65230217 -5.24897184 13.09583815 -5.2578125 10.5390625 C-5.26813507 9.74005524 -5.27845764 8.94104797 -5.28909302 8.11782837 C-5.28949226 6.1604278 -5.18491069 4.20356923 -5.0625 2.25 C-3.0625 0.25 -3.0625 0.25 0 0 Z " fill="#4A4A4A" transform="translate(22.0625,16.75)"/>
<path d="M0 0 C2.13520842 3.50969481 2.3470024 6.56264102 2.5625 10.625 C2.67206498 14.97107346 2.67206498 14.97107346 4 19 C5.65 18.67 7.3 18.34 9 18 C9.12117188 16.86820313 9.24234375 15.73640625 9.3671875 14.5703125 C9.53600276 13.08848969 9.70529855 11.60672158 9.875 10.125 C9.95363281 9.37863281 10.03226563 8.63226563 10.11328125 7.86328125 C10.7734375 2.2265625 10.7734375 2.2265625 13 0 C17.55555556 0.55555556 17.55555556 0.55555556 19 2 C19.91203929 8.38427502 20.15461973 14.74702918 20.25 21.1875 C20.28202515 22.32723267 20.28202515 22.32723267 20.31469727 23.48999023 C20.35228346 29.76141712 19.14080696 34.45779174 15 39.375 C11.59827736 42.13889965 8.3540901 42.28186162 4.0625 42.21875 C-0.06773758 41.7806945 -2.95911292 39.97373307 -5.9375 37.1875 C-7.40286353 34.17057509 -6.795896 32.18358402 -6 29 C-1.12335991 28.65166856 1.77050005 29.58314288 6 32 C6.99 31.34 7.98 30.68 9 30 C9 29.01 9 28.02 9 27 C8.34 27.33 7.68 27.66 7 28 C2.79932307 28.04054707 -0.86852234 27.72530619 -4.4375 25.4375 C-8.66132293 18.84833622 -8.92169977 10.32537644 -7.61328125 2.765625 C-6.36318657 -0.83337369 -3.28133828 -0.08635101 0 0 Z " fill="#4E4E4E" transform="translate(66,30)"/>
<path d="M0 0 C0.75152344 -0.02449219 1.50304687 -0.04898437 2.27734375 -0.07421875 C7.56790386 -0.10191802 10.56228505 0.87463036 14.75 4.375 C17.83961523 8.90643568 18.54933815 13.03542117 17.75 18.375 C16.33769957 21.93937729 14.91155319 25.11674772 11.75 27.375 C7.29237757 28.97301559 3.47434679 29.60545594 -1.25 29.375 C-1.23839844 30.00148438 -1.22679688 30.62796875 -1.21484375 31.2734375 C-1.20130859 32.49933594 -1.20130859 32.49933594 -1.1875 33.75 C-1.17589844 34.56210937 -1.16429688 35.37421875 -1.15234375 36.2109375 C-1.25 38.375 -1.25 38.375 -2.25 40.375 C-4.56 40.375 -6.87 40.375 -9.25 40.375 C-10.82667147 37.22165706 -10.41297041 33.83737759 -10.41796875 30.375 C-10.42129715 29.58351563 -10.42462555 28.79203125 -10.42805481 27.9765625 C-10.4331204 26.30208925 -10.43546325 24.6276059 -10.43530273 22.953125 C-10.43749127 20.38524865 -10.45565609 17.81780041 -10.47460938 15.25 C-10.47754291 13.62500147 -10.47952797 12.0000009 -10.48046875 10.375 C-10.48765427 9.60414062 -10.49483978 8.83328125 -10.50224304 8.0390625 C-10.46709508 -0.11940761 -7.25720957 0.01219699 0 0 Z M-1.25 9.375 C-1.25 12.675 -1.25 15.975 -1.25 19.375 C1.582168 19.70948259 1.582168 19.70948259 4.75 19.375 C7.12719693 17.49998069 7.12719693 17.49998069 8.75 15.375 C7.63145414 11.64885847 7.63145414 11.64885847 4.75 9.375 C2.75039988 9.335008 0.74952758 9.33153201 -1.25 9.375 Z " fill="#464646" transform="translate(100.25,16.625)"/>
<path d="M0 0 C2.7064134 1.24911388 4.88021731 2.88021731 7 5 C7.375 7.875 7.375 7.875 7 11 C4.9375 12.625 4.9375 12.625 2 14 C0.72384601 14.71981413 -0.54692348 15.44924703 -1.8125 16.1875 C-3.3903125 17.0846875 -3.3903125 17.0846875 -5 18 C-3.906875 17.79375 -2.81375 17.5875 -1.6875 17.375 C2 17 2 17 5 19 C4.51669316 25.52464229 4.51669316 25.52464229 2.4375 27.4375 C-2.76393046 28.63783011 -7.06466861 28.79706431 -11.8125 26.3125 C-15.13078276 23.90511839 -16.58969414 22.81612175 -18 19 C-18.67635093 13.95273118 -18.57622855 10.17379889 -16.3125 5.5625 C-11.50371563 0.23384704 -7.04756894 -1.16427325 0 0 Z M-5 9 C-5.99 9.33 -6.98 9.66 -8 10 C-8 10.66 -8 11.32 -8 12 C-6.35 11.34 -4.7 10.68 -3 10 C-3.66 9.67 -4.32 9.34 -5 9 Z " fill="#4E4E4E" transform="translate(136,30)"/>
<path d="M0 0 C2.33333333 0.33333333 4.66666667 0.66666667 7 1 C7.33 0.67 7.66 0.34 8 0 C9.9609375 -0.16796875 9.9609375 -0.16796875 12.375 -0.1875 C13.16648438 -0.20167969 13.95796875 -0.21585938 14.7734375 -0.23046875 C17 0 17 0 20 2 C20.25 5.0625 20.25 5.0625 20 8 C19 9 19 9 17.00390625 9.0625 C15.37890454 9.02089996 13.75390453 8.9792335 12.12890625 8.9375 C9.94497784 8.85218862 9.94497784 8.85218862 8 10 C7.74305491 12.28330749 7.59389775 14.57920012 7.5 16.875 C7.22100656 23.66849015 7.22100656 23.66849015 5 27 C1.875 27.1875 1.875 27.1875 -1 27 C-3.58876519 23.12712509 -3.29590334 19.04190094 -3.25 14.5625 C-3.25773438 13.81162109 -3.26546875 13.06074219 -3.2734375 12.28710938 C-3.24161518 3.24161518 -3.24161518 3.24161518 0 0 Z " fill="#4F4F4F" transform="translate(148,30)"/>
<path d="M0 0 C0.33 -0.33 0.66 -0.66 1 -1 C2.9609375 -1.16796875 2.9609375 -1.16796875 5.375 -1.1875 C6.16648438 -1.20167969 6.95796875 -1.21585938 7.7734375 -1.23046875 C10 -1 10 -1 13 1 C13.1875 4.125 13.1875 4.125 13 7 C11.4221875 7.2165625 11.4221875 7.2165625 9.8125 7.4375 C6.84386786 7.87549491 3.93668312 8.396433 1 9 C0.95101562 9.89203125 0.90203125 10.7840625 0.8515625 11.703125 C0.77679688 12.87359375 0.70203125 14.0440625 0.625 15.25 C0.55539063 16.41015625 0.48578125 17.5703125 0.4140625 18.765625 C0.03395234 21.73478735 -0.29633889 23.56619841 -2 26 C-5 27 -5 27 -8 26 C-10.06280171 20.12101513 -10.12332231 14.70811732 -9.8125 8.5625 C-9.7825293 7.852146 -9.75255859 7.14179199 -9.72167969 6.40991211 C-9.58203125 4.37890625 -9.58203125 4.37890625 -9 1 C-5.29658604 -1.46894264 -4.19547676 -0.82085415 0 0 Z " fill="#515151" transform="translate(180,31)"/>
<path d="M0 0 C1.2375 0.1546875 1.2375 0.1546875 2.5 0.3125 C4.85490728 3.84486092 4.82743705 5.55970368 4.875 9.75 C4.90335938 10.88308594 4.93171875 12.01617187 4.9609375 13.18359375 C4.5 16.3125 4.5 16.3125 2.640625 18.72265625 C0.5 20.3125 0.5 20.3125 -2.125 20.3125 C-4.5 19.3125 -4.5 19.3125 -5.8125 17.75 C-7.32782981 12.37746705 -7.11343848 7.2489949 -4.5 2.3125 C-2.5 0.3125 -2.5 0.3125 0 0 Z M-2.5 4.3125 C-3.6577506 7.78575181 -3.56866652 10.67317448 -3.5 14.3125 C-3.17 12.9925 -2.84 11.6725 -2.5 10.3125 C-1.51 10.3125 -0.52 10.3125 0.5 10.3125 C0.83 10.9725 1.16 11.6325 1.5 12.3125 C1.5 10.0025 1.5 7.6925 1.5 5.3125 C0.18 4.9825 -1.14 4.6525 -2.5 4.3125 Z " fill="#EBA884" transform="translate(223.5,1.6875)"/>
<path d="M0 0 C1.35358503 2.70717007 0.95126377 4.73470068 0.8125 7.75 C0.7677452 13.10139511 1.3760557 15.87273011 5 20 C6.11375 21.423125 6.11375 21.423125 7.25 22.875 C7.8275 23.57625 8.405 24.2775 9 25 C4.55790165 24.49233162 2.19549115 23.11355548 -1 20 C-4.63563546 15.08697911 -5.68676789 11.30514229 -5.47265625 5.1796875 C-5 3 -5 3 -2.5 0.875 C-1.2625 0.441875 -1.2625 0.441875 0 0 Z " fill="#C3825F" transform="translate(200,31)"/>
<path d="M0 0 C0.33 0 0.66 0 1 0 C1.33 3.96 1.66 7.92 2 12 C-1 14 -1 14 -3.6875 13.625 C-4.450625 13.41875 -5.21375 13.2125 -6 13 C-6.33 12.01 -6.66 11.02 -7 10 C-6.34 10 -5.68 10 -5 10 C-4.67 8.02 -4.34 6.04 -4 4 C-3.01 4 -2.02 4 -1 4 C-0.67 2.68 -0.34 1.36 0 0 Z " fill="#D3AC97" transform="translate(225,8)"/>
<path d="M0 0 C2.0625 0.4375 2.0625 0.4375 4 1 C4.33 3.31 4.66 5.62 5 8 C3.02 8.99 3.02 8.99 1 10 C-1 8 -1 8 -1.1875 4.4375 C-1 1 -1 1 0 0 Z " fill="#6F6F6F" transform="translate(210,11)"/>
<path d="M0 0 C0.5775 0.226875 1.155 0.45375 1.75 0.6875 C1.110625 0.97625 0.47125 1.265 -0.1875 1.5625 C-2.40206079 2.51573451 -2.40206079 2.51573451 -3.25 4.6875 C-4.89363134 5.40909424 -6.56050386 6.08101421 -8.25 6.6875 C-6.65594781 2.8352072 -4.57967475 -0.63606594 0 0 Z " fill="#CF9575" transform="translate(204.25,27.3125)"/>
</svg>
